<?xml version="1.0" encoding="utf-8"?>
<!-- Generator: Adobe Illustrator 16.0.4, SVG Export Plug-In . SVG Version: 6.00 Build 0)  -->
<!DOCTYPE svg PUBLIC "-//W3C//DTD SVG 1.1//EN" "http://www.w3.org/Graphics/SVG/1.1/DTD/svg11.dtd">
<svg version="1.1" id="Layer_1" xmlns="http://www.w3.org/2000/svg" xmlns:xlink="http://www.w3.org/1999/xlink" x="0px" y="0px"
	 width="399.765px" height="150.392px" viewBox="0 0 399.765 150.392" enable-background="new 0 0 399.765 150.392"
	 xml:space="preserve">
<g>
	<path fill="#222222" d="M53.766,151.429c-15.464,0-28.29-4.813-38.48-14.444C5.094,127.359,0,114.883,0,99.559V0.04h22.771v98.465
		c0,9.982,2.774,17.89,8.328,23.721c5.552,5.836,13.106,8.752,22.667,8.752c9.416,0,16.974-2.916,22.666-8.752
		c5.693-5.831,8.54-13.738,8.54-23.721V0.04h22.772v99.52c0,15.324-5.097,27.8-15.287,37.426
		C82.264,146.616,69.369,151.429,53.766,151.429z"/>
	<path fill="#222222" d="M231.686,150.392L200.15,86.88l-28.522,0.027v63.467h-22.771V0.04h58.193
		c14.056,0,25.335,4.042,33.843,12.124c8.502,8.084,12.757,18.66,12.757,31.733c0,10.262-2.778,18.871-8.33,25.829
		c-5.555,6.958-12.755,11.632-21.611,14.021l34.579,66.628L231.686,150.392z M205.363,20.492h-33.736v47.229h33.736
		c7.591,0,13.737-2.082,18.449-6.247c4.709-4.164,7.064-9.919,7.064-17.263c0-7.339-2.321-13.128-6.96-17.365
		C219.28,22.61,213.093,20.492,205.363,20.492z"/>
	<path fill="#222222" d="M373.594,150.261l-32.871-57.692l-32.516,57.774l-26.099,0.027l46.393-77.17L285.062,0.04L311.278,0
		l29.433,53.704L370.388,0l26.214,0.04l-43.438,73.161l46.601,77.174L373.594,150.261z"/>
</g>
</svg>
